<?xml version="1.0" standalone="no"?>
<!DOCTYPE svg PUBLIC "-//W3C//DTD SVG 20010904//EN"
 "http://www.w3.org/TR/2001/REC-SVG-20010904/DTD/svg10.dtd">
<svg version="1.0" xmlns="http://www.w3.org/2000/svg"
 width="2041.000000pt" height="1145.000000pt" viewBox="0 0 2041.000000 1145.000000"
 preserveAspectRatio="xMidYMid meet">

<g transform="translate(0.000000,1145.000000) scale(0.100000,-0.100000)"
fill="#000000" stroke="none">
<path d="M0 5725 l0 -5725 10205 0 10205 0 0 5725 0 5725 -10205 0 -10205 0 0
-5725z m1203 5678 c4 -3 2 -12 -5 -20 -16 -20 -3 -27 16 -8 9 9 16 12 16 6 0
-6 -9 -15 -20 -21 -13 -7 -20 -21 -20 -40 0 -27 -3 -30 -30 -30 -20 0 -30 5
-30 15 0 9 -6 18 -13 21 -19 7 -18 45 1 61 9 8 11 11 3 7 -9 -5 -12 -3 -7 4 8
13 78 17 89 5z m5447 -133 c0 -13 -7 -20 -19 -20 -10 0 -22 -8 -26 -17 -3 -10
-6 -104 -5 -209 1 -160 -2 -193 -15 -204 -12 -10 -15 -34 -14 -114 0 -55 3
-95 6 -88 7 17 23 15 23 -3 0 -12 -16 -15 -80 -15 -82 0 -94 7 -65 37 13 13
15 56 13 296 l-3 282 -40 3 c-22 1 -60 5 -85 9 -43 6 -44 7 -15 14 23 5 16 7
-35 9 -56 2 -60 4 -30 10 l35 7 -30 2 c-26 2 -27 4 -10 11 11 5 104 9 208 9
181 1 187 0 187 -19z m17 -12 c-3 -7 -5 -2 -5 12 0 14 2 19 5 13 2 -7 2 -19 0
-25z m-3567 -318 c0 -305 0 -310 -20 -310 -11 0 -20 -7 -20 -15 0 -8 -7 -15
-15 -15 -8 0 -15 7 -15 15 0 8 -6 14 -12 13 -10 -2 -13 64 -15 302 l-2 305 22
7 c12 3 34 6 49 7 l27 1 1 -310z m3540 290 c0 -5 -4 -10 -10 -10 -5 0 -10 5
-10 10 0 6 5 10 10 10 6 0 10 -4 10 -10z m4157 -2326 c35 -35 26 -77 -30 -129
-61 -58 -142 -159 -215 -270 -26 -38 -50 -74 -55 -80 -47 -62 -164 -269 -230
-405 -73 -152 -107 -227 -107 -235 0 -4 -6 -21 -14 -38 -37 -83 -87 -276 -116
-449 -37 -220 -20 -584 35 -733 8 -22 14 -48 15 -57 0 -10 10 -45 21 -79 37
-106 20 -141 -86 -184 -89 -37 -365 -200 -365 -216 0 -13 394 -22 490 -12 114
12 260 43 260 54 0 5 7 9 15 9 25 0 136 59 185 98 43 34 106 96 141 140 54 65
100 186 101 264 1 50 -7 56 -35 30 -35 -33 -76 -44 -161 -44 -69 0 -86 4 -142
33 -35 17 -64 36 -64 40 0 4 -8 10 -18 13 -22 7 -90 99 -130 173 -35 67 -70
105 -126 138 -84 49 -100 111 -43 168 19 18 49 39 68 46 19 7 41 16 50 21 69
35 372 90 501 90 93 0 212 -24 278 -56 78 -38 140 -125 140 -198 0 -49 -44
-131 -87 -162 -21 -16 -39 -28 -40 -29 -2 0 31 -93 43 -120 5 -11 9 -72 9
-135 0 -92 -5 -129 -23 -185 -23 -69 -87 -196 -120 -237 -47 -57 -153 -160
-205 -197 -105 -76 -263 -147 -370 -167 -38 -6 -38 -6 -13 -19 13 -7 41 -18
63 -25 59 -20 161 -73 236 -124 38 -25 79 -46 92 -46 16 0 26 -8 32 -25 4 -13
29 -39 55 -58 26 -18 83 -67 126 -109 l79 -75 104 -6 c57 -4 138 -12 179 -17
66 -9 286 -34 423 -47 l47 -5 0 349 c0 191 -3 358 -6 370 -4 15 -19 25 -52 34
-26 7 -53 13 -59 12 -7 0 -13 3 -13 7 0 4 -24 19 -52 34 -82 40 -147 96 -148
127 0 16 7 29 16 33 9 3 79 6 156 6 l140 0 -5 63 c-5 71 -44 381 -51 406 -3 9
-10 70 -16 136 -6 66 -15 161 -21 210 -6 50 -13 109 -15 133 -3 23 -9 42 -14
42 -5 0 -34 11 -64 25 -30 14 -60 25 -66 25 -21 0 -133 62 -167 93 -74 66
-133 131 -133 145 0 7 -123 169 -153 202 -25 27 -121 152 -194 254 -86 118
-94 154 -44 205 36 37 71 47 104 29 14 -7 91 -77 171 -156 81 -79 150 -140
155 -137 6 3 22 31 36 63 33 70 38 161 13 242 -9 30 -26 85 -38 121 -12 41
-20 93 -20 140 0 87 24 144 90 219 22 24 40 47 40 50 0 4 24 25 53 48 28 23
57 46 62 50 6 5 35 21 65 36 65 33 145 46 209 34 39 -7 55 -18 107 -74 68 -72
100 -129 113 -197 9 -50 -1 -144 -23 -208 -14 -39 -13 -50 5 -128 18 -78 41
-154 71 -236 6 -18 12 -126 14 -262 2 -178 6 -240 18 -265 8 -18 18 -44 21
-58 4 -14 13 -38 20 -55 7 -16 28 -68 46 -115 18 -47 39 -96 46 -110 7 -14 13
-28 13 -32 0 -9 85 -230 106 -275 8 -17 14 -34 14 -37 0 -14 134 -343 144
-353 3 -3 6 -12 6 -20 0 -7 13 -41 29 -75 49 -107 81 -178 81 -184 0 -3 7 -12
15 -21 16 -15 76 -14 176 3 34 5 37 4 47 -25 14 -39 -6 -65 -82 -106 -31 -16
-56 -34 -56 -40 0 -5 35 -82 79 -170 143 -292 221 -458 221 -473 0 -6 39 -12
103 -14 72 -3 114 -10 142 -23 22 -10 48 -17 59 -16 10 1 15 -2 12 -7 -3 -6 2
-13 13 -17 11 -3 25 -13 33 -23 12 -16 11 -16 -7 -2 -19 14 -19 14 -6 -3 8
-10 20 -16 27 -13 8 3 13 2 13 -2 -3 -21 2 -32 13 -26 7 4 8 3 4 -4 -7 -11 19
-60 39 -74 5 -4 6 -8 2 -8 -4 0 -3 -9 3 -20 12 -23 80 -29 80 -7 0 8 3 7 10
-3 5 -8 11 -12 14 -9 10 10 -14 33 -36 34 -13 1 -38 9 -55 19 -26 13 -33 23
-33 46 0 32 25 48 105 69 50 13 83 35 126 84 29 33 38 37 79 37 52 0 70 -13
70 -50 0 -14 4 -20 8 -14 14 22 52 34 105 34 48 0 60 -4 91 -32 20 -17 36 -38
36 -46 0 -12 10 -13 52 -8 29 4 57 11 63 15 5 5 26 14 47 20 20 7 57 30 81 51
46 41 73 48 108 30 14 -8 19 -21 19 -50 l0 -40 33 18 c74 41 188 54 270 31 44
-12 106 -65 139 -117 22 -35 23 -46 20 -199 -1 -92 2 -164 7 -168 5 -3 29 -10
53 -15 24 -5 74 -16 112 -25 38 -8 71 -13 74 -11 2 3 -6 26 -18 53 -12 26 -28
62 -35 78 -45 103 -67 145 -75 145 -6 0 -10 11 -10 25 0 14 -4 25 -10 25 -5 0
-10 8 -10 19 0 25 -26 45 -47 37 -10 -4 -14 -4 -11 0 4 3 -2 15 -13 27 -22 24
-26 90 -6 103 6 5 95 9 196 9 168 -1 184 -3 197 -20 27 -37 10 -115 -26 -115
-25 0 -25 0 6 -68 58 -127 66 -142 72 -142 4 0 20 12 36 26 21 19 30 36 30 59
1 18 3 31 5 29 3 -3 41 71 41 81 0 1 -17 5 -38 9 -56 8 -77 35 -65 83 l9 38
129 6 c72 3 140 9 153 13 38 13 72 -17 72 -63 0 -42 -19 -64 -63 -75 -19 -5
-33 -17 -42 -39 -15 -35 -12 -45 7 -30 7 6 29 14 48 18 19 4 49 13 65 20 17 7
66 25 110 39 44 15 87 31 95 35 8 4 42 16 75 25 33 10 69 22 80 27 51 21 151
49 179 49 55 -1 96 -49 96 -113 0 -48 -22 -69 -115 -115 -159 -79 -280 -140
-294 -149 -5 -3 34 -40 80 -74 74 -56 95 -61 274 -71 94 -5 180 -13 193 -18
50 -22 68 -32 93 -53 27 -25 129 -171 129 -187 0 -6 4 -10 8 -10 5 0 15 -19
21 -42 7 -24 17 -48 23 -55 5 -6 12 -58 15 -116 5 -97 4 -108 -20 -159 -23
-52 -30 -58 -101 -93 -98 -48 -201 -64 -282 -45 -31 8 -61 19 -68 24 -34 32
-107 75 -142 85 -42 11 -251 18 -260 8 -6 -5 54 -67 65 -67 3 0 32 -24 64 -54
51 -48 57 -57 57 -94 0 -29 -7 -49 -24 -68 -23 -28 -25 -28 -187 -35 -90 -5
-921 -11 -1845 -15 l-1682 -7 -4 44 c-3 24 -4 45 -2 47 1 2 816 7 1810 13
1279 6 1811 12 1818 20 8 7 4 16 -14 30 -144 116 -180 150 -180 172 0 12 17
38 37 59 l37 38 86 0 c48 0 131 -7 185 -15 86 -13 106 -20 154 -53 115 -80
166 -89 275 -50 121 42 156 80 156 168 0 45 -19 152 -30 165 -4 6 -11 21 -15
35 -13 44 -113 187 -151 216 -35 27 -42 29 -198 36 -233 12 -293 33 -403 146
-40 40 -53 60 -53 82 0 37 18 49 230 154 85 42 163 82 173 90 37 29 9 59 -43
46 -36 -9 -240 -75 -275 -90 -56 -22 -194 -70 -220 -76 -16 -4 -34 -10 -40
-14 -5 -5 -30 -13 -55 -19 -76 -20 -86 -29 -115 -105 -129 -333 -217 -512
-294 -597 -20 -21 -31 -44 -31 -64 -1 -35 -30 -75 -55 -75 -10 0 -34 15 -55
33 -20 17 -47 40 -58 49 -42 34 -19 80 51 104 38 13 137 150 137 190 0 36 -50
134 -69 135 -9 0 -23 2 -31 4 -8 2 -35 8 -60 14 -25 5 -65 15 -89 21 -25 6
-54 9 -65 7 -22 -4 -19 -6 37 -26 23 -9 27 -16 27 -50 0 -75 11 -71 -215 -71
-224 0 -215 -3 -215 65 0 37 10 48 63 64 33 11 37 16 37 47 0 37 4 35 -104 54
-99 17 -106 15 -106 -24 0 -41 8 -66 22 -66 5 0 23 -10 40 -21 27 -20 30 -26
25 -62 -3 -22 -10 -44 -16 -50 -15 -15 -403 -10 -413 6 -4 7 -8 29 -8 49 0 40
20 60 73 73 25 7 27 11 27 55 0 26 3 61 6 78 6 30 6 30 -52 41 -33 6 -75 16
-94 21 -19 5 -53 11 -75 15 -22 3 -64 9 -92 14 l-53 8 6 -101 c3 -56 7 -106 9
-112 2 -6 23 -14 48 -18 24 -4 52 -12 60 -19 18 -13 24 -60 13 -94 -7 -23 -8
-23 -241 -23 l-235 0 -6 24 c-13 54 -1 80 49 104 l47 24 0 118 c0 112 -1 119
-21 125 -11 4 -36 4 -54 1 l-33 -7 -4 -72 c-5 -93 -34 -154 -106 -227 -74 -74
-154 -110 -243 -110 -31 0 -40 -6 -63 -40 -14 -22 -26 -42 -26 -45 0 -8 -15
-26 -74 -91 -47 -52 -51 -54 -100 -54 l-51 1 36 22 c65 40 175 173 166 201 -2
6 -21 14 -43 19 -66 13 -123 47 -185 109 -32 32 -59 63 -59 69 0 6 -6 25 -14
42 -8 18 -17 39 -19 47 -3 8 -6 -94 -6 -227 l-1 -241 49 -31 c28 -16 55 -40
62 -52 15 -30 6 -158 -12 -170 -17 -11 -82 -11 -179 1 -45 5 -114 4 -173 -2
-127 -12 -132 -9 -131 99 0 67 3 78 24 95 13 11 36 22 52 25 15 3 32 11 38 18
13 15 16 634 3 645 -4 4 -86 10 -180 14 l-173 6 0 -339 0 -339 39 -7 c22 -3
49 -17 62 -31 19 -20 22 -34 22 -100 -1 -48 -5 -79 -13 -84 -9 -6 -450 -7
-482 -1 -5 0 -8 37 -8 81 0 91 10 109 72 129 34 11 36 15 41 59 2 26 5 198 6
383 l1 337 -22 6 c-31 10 -318 41 -562 63 l-199 17 -66 62 c-96 90 -145 134
-151 134 -5 0 -5 -218 -2 -554 l2 -158 94 7 c89 6 95 6 106 -14 12 -23 4 -45
-27 -73 -21 -19 -100 -42 -218 -63 -44 -8 -81 -19 -83 -25 -2 -5 -23 -10 -47
-10 -36 0 -45 4 -50 21 -6 17 -11 19 -28 13 -12 -5 -78 -9 -147 -9 -121 0
-126 1 -165 28 -76 53 -145 152 -145 207 0 19 -9 11 -41 -36 -103 -147 -237
-224 -390 -224 -57 0 -159 29 -183 52 -24 23 -56 48 -61 48 -3 0 -5 -13 -5
-29 0 -16 -6 -33 -13 -39 -18 -15 -1235 -13 -1259 2 -13 8 -18 24 -18 53 0 47
17 63 69 63 49 0 48 -2 43 281 -2 74 -3 77 -29 83 -21 6 -31 1 -53 -23 -35
-38 -88 -49 -140 -28 -34 13 -39 13 -44 0 -10 -26 -6 -274 4 -294 8 -13 21
-19 46 -19 24 0 43 -8 59 -25 28 -27 31 -52 12 -79 -12 -17 -33 -18 -224 -19
-115 0 -215 3 -221 7 -17 10 -15 81 3 96 8 7 30 16 48 19 31 7 32 8 33 63 0
31 -3 55 -8 52 -4 -3 -8 -12 -8 -20 0 -26 -161 -179 -213 -203 -150 -68 -313
-50 -416 48 -72 68 -93 116 -99 233 -6 133 12 189 87 266 82 86 127 104 253
103 120 -1 161 -17 232 -88 l47 -46 19 21 c11 12 37 24 57 28 45 8 97 40 137
83 25 26 37 31 78 31 42 0 50 -3 60 -25 7 -17 15 -22 22 -16 6 6 34 12 61 16
50 6 58 3 126 -46 23 -17 77 -4 144 37 50 30 66 34 109 32 l51 -3 3 -281 2
-281 40 -7 c22 -3 40 -12 41 -19 0 -9 2 -9 6 0 2 7 22 17 42 23 38 10 38 11
43 68 3 31 3 111 -1 177 l-6 120 -40 5 -40 5 -3 56 c-3 60 -4 59 69 82 10 3
19 22 23 49 4 23 12 58 18 75 7 18 9 35 5 39 -3 3 -45 11 -94 18 l-88 12 -30
-40 c-22 -30 -44 -45 -80 -56 -28 -9 -57 -19 -65 -22 -8 -4 -42 -9 -76 -13
-94 -9 -102 9 -51 130 14 32 23 63 21 67 -8 13 -41 9 -102 -11 -53 -18 -186
-39 -152 -25 8 4 17 10 20 13 3 4 27 20 54 35 l49 29 -101 33 -101 34 -66 -65
c-36 -36 -71 -65 -78 -65 -9 0 -9 2 0 8 7 4 26 39 43 76 35 76 34 77 -32 98
-21 6 -38 15 -38 20 0 4 -7 8 -15 8 -15 0 -36 9 -173 71 -34 16 -67 29 -72 29
-6 0 -10 4 -10 9 0 5 -9 12 -20 16 -11 3 -60 29 -110 56 -86 47 -118 54 -106
23 3 -8 -1 -14 -9 -14 -16 0 -45 -27 -45 -41 0 -6 3 -8 8 -6 4 3 7 -5 7 -18 0
-15 -4 -20 -10 -15 -11 9 -58 -148 -90 -295 -12 -57 -35 -145 -85 -330 -22
-81 -39 -151 -65 -260 -8 -33 -35 -141 -61 -240 -25 -99 -51 -202 -56 -230 -5
-27 -16 -72 -23 -100 -8 -27 -19 -69 -25 -92 l-11 -43 -73 0 c-85 0 -94 7
-107 78 -5 26 -16 70 -24 97 -7 28 -21 79 -30 115 -18 73 -55 214 -80 305 -8
33 -20 69 -25 80 -5 11 -15 47 -24 80 -8 33 -24 92 -36 130 -12 39 -30 102
-40 140 -10 39 -28 104 -40 145 -21 72 -49 182 -54 206 -1 7 -7 18 -14 26 -6
8 -9 17 -7 20 3 3 1 18 -6 34 -11 30 -12 33 -27 95 -5 19 -18 48 -28 64 -10
16 -13 26 -6 22 6 -5 12 -5 12 0 -1 14 -24 38 -53 53 -16 8 -24 16 -18 18 7 2
18 -2 26 -8 10 -9 15 -9 15 -1 0 13 -44 25 -65 17 -8 -3 -15 -1 -15 4 0 6 7
10 17 10 22 0 11 10 -17 15 -12 2 -28 9 -34 15 -7 5 -16 7 -19 3 -4 -3 -7 -1
-7 5 0 7 -8 12 -17 12 -14 0 -15 -2 -4 -9 7 -5 9 -11 4 -14 -15 -9 -36 9 -28
24 6 9 4 11 -8 6 -15 -6 -57 22 -57 38 0 9 -31 34 -42 35 -5 0 -8 -5 -8 -11 0
-5 5 -7 10 -4 6 3 10 1 10 -4 0 -14 -6 -14 -31 0 -12 6 -18 17 -15 25 3 8 -1
14 -10 14 -8 0 -13 3 -10 8 2 4 -3 16 -11 27 -10 13 -14 14 -10 4 3 -9 -1 -16
-9 -16 -8 0 -13 6 -10 12 2 7 0 17 -6 23 -14 14 -2 46 13 36 7 -4 9 -3 6 3 -4
6 0 16 8 23 8 7 12 17 8 23 -4 6 -1 7 7 2 7 -4 16 -2 20 5 11 18 85 -1 84 -21
-1 -8 7 -15 17 -15 10 0 15 4 13 8 -3 4 2 8 10 8 9 0 16 -5 16 -11 0 -6 9 -8
20 -4 28 9 50 -6 24 -17 -16 -6 -15 -7 6 -6 14 1 30 0 35 -3 17 -11 91 -21 77
-11 -11 7 -9 11 8 15 13 3 23 0 27 -9 3 -8 13 -12 27 -9 11 3 41 2 66 -3 25
-5 63 -6 85 -3 39 6 39 6 -20 12 -33 4 5 4 85 1 159 -6 190 -6 265 2 34 4 43
2 30 -4 -11 -5 -14 -9 -7 -9 7 -1 25 7 40 16 26 17 26 17 13 0 -14 -18 -12
-21 13 -11 9 3 13 11 9 18 -5 8 -3 8 8 0 8 -7 23 -14 34 -18 13 -3 10 -4 -7
-2 -15 2 -25 -1 -22 -5 7 -12 61 -11 69 1 3 6 12 10 18 10 8 0 8 -3 -1 -9 -11
-7 -11 -9 2 -14 9 -4 16 -1 16 5 0 9 3 9 12 0 21 -21 32 -13 12 9 -19 22 -19
22 3 10 41 -21 34 -11 -55 78 -49 49 -89 96 -89 104 0 14 -18 61 -65 167 -11
25 -29 65 -40 90 -59 135 -168 338 -183 342 -5 2 -13 -24 -16 -57 -16 -161
-88 -277 -229 -369 -95 -63 -200 -96 -346 -107 -70 -6 -142 -6 -170 -1 -48 8
-46 8 47 15 176 13 347 61 450 127 47 31 139 123 139 140 0 5 6 15 13 22 8 7
24 45 37 83 20 59 24 91 24 205 1 118 -2 142 -22 190 -33 80 -63 139 -79 151
-7 6 -13 15 -13 20 0 4 -11 24 -24 44 -82 120 -190 394 -216 548 -12 66 -9
263 5 340 4 20 3 37 -3 37 -19 0 -180 -89 -216 -121 -63 -54 -86 -81 -79 -92
3 -5 1 -7 -4 -4 -30 19 -127 -163 -143 -269 -9 -60 -9 -78 5 -109 12 -30 151
-224 175 -245 12 -11 46 -68 76 -130 56 -116 67 -157 68 -265 1 -92 -1 -104
-28 -152 -16 -29 -49 -72 -74 -98 -73 -72 -237 -147 -319 -144 -27 1 -26 1 7
10 124 35 314 163 335 228 3 11 10 21 15 21 15 0 33 102 27 164 -10 123 -70
250 -200 423 -70 93 -89 109 -69 56 6 -15 14 -44 17 -63 8 -44 53 -189 66
-213 5 -9 15 -51 21 -92 13 -87 1 -179 -29 -215 -56 -69 -118 -110 -190 -125
-46 -9 -41 6 11 35 25 13 42 28 39 33 -3 6 -2 7 4 4 15 -10 88 57 108 99 34
72 20 185 -45 374 -5 14 -14 50 -20 80 -14 64 -31 122 -41 133 -12 15 -183 37
-287 37 -125 0 -153 12 -182 75 -24 53 -25 73 -4 103 22 32 12 38 -38 23 -52
-16 -96 -48 -114 -84 -13 -24 -13 -31 1 -60 19 -40 62 -67 105 -67 49 0 31
-24 -26 -33 -54 -9 -192 -52 -233 -73 -14 -8 -30 -14 -34 -14 -12 0 -147 -79
-178 -104 -14 -12 -37 -28 -49 -36 -13 -8 -35 -26 -51 -40 -15 -14 -49 -43
-76 -65 -173 -143 -240 -255 -307 -520 -42 -162 -33 -314 31 -513 22 -70 38
-79 28 -16 -17 110 -21 170 -17 218 4 38 7 46 13 31 4 -11 8 -33 8 -50 2 -87
93 -253 185 -337 33 -31 38 -33 35 -15 -4 35 2 38 33 15 48 -34 99 -60 106
-53 3 3 -2 21 -11 40 -24 49 -51 292 -43 385 10 121 39 199 76 200 18 0 59
-46 66 -77 4 -13 10 -23 14 -23 4 0 13 -21 20 -47 7 -27 16 -52 20 -58 10 -14
30 -133 31 -186 l1 -44 15 35 c11 24 18 75 20 165 2 72 6 136 8 142 7 21 34 3
66 -44 39 -56 123 -140 149 -148 11 -4 20 -11 20 -17 0 -5 7 -7 16 -4 8 3 13
2 10 -2 -5 -8 30 -26 98 -52 l28 -10 -7 107 c-4 59 -11 118 -16 131 -12 30
-12 92 0 92 27 0 73 -364 72 -580 0 -154 -5 -196 -38 -328 -8 -34 16 -19 59
36 38 50 87 141 109 205 14 41 35 45 32 6 -1 -13 -6 -83 -12 -154 -5 -72 -17
-147 -25 -167 -24 -56 -19 -67 11 -25 14 20 34 37 45 37 15 0 18 -8 18 -45 0
-48 -18 -144 -30 -160 -4 -5 -10 -23 -14 -40 -4 -16 -14 -43 -21 -60 -56 -123
-69 -267 -35 -401 26 -107 61 -174 119 -235 45 -47 49 -54 53 -112 5 -60 31
-126 67 -173 15 -19 16 -11 16 125 1 215 20 227 28 19 4 -89 14 -188 22 -218
33 -125 124 -259 223 -328 45 -32 51 -21 15 25 -32 42 -83 161 -83 195 0 20 1
20 18 -3 10 -13 36 -60 57 -103 35 -73 77 -126 121 -152 23 -13 12 -44 -16
-44 -17 0 -20 -6 -20 -41 l0 -41 1710 7 1710 8 0 -47 0 -46 -402 -2 c-222 -1
-470 -3 -553 -4 -82 -1 -674 -3 -1315 -5 -977 -3 -1169 -2 -1190 10 -20 12
-25 12 -29 0 -5 -15 -92 -102 -140 -139 -117 -91 -315 -160 -456 -160 -82 0
-198 26 -269 60 -91 43 -215 164 -256 250 -17 36 -35 72 -40 82 -5 9 -18 53
-29 98 -12 45 -31 95 -43 113 -14 20 -23 50 -26 86 -3 50 1 65 37 136 23 44
41 87 41 96 0 21 64 149 87 174 10 11 46 60 78 109 72 107 181 258 253 351 4
6 14 26 21 45 7 19 17 44 21 55 24 59 14 97 -41 160 -10 11 -35 40 -56 63
l-39 44 -79 -17 c-80 -16 -227 -21 -262 -8 -36 13 -91 78 -103 122 -6 25 -26
58 -46 77 -19 19 -34 41 -34 48 0 7 -9 21 -20 31 -11 10 -20 29 -20 42 0 15
-14 37 -34 56 -71 66 -96 106 -96 157 0 33 6 54 20 70 11 13 20 26 20 29 -1 3
-21 26 -45 51 -25 25 -45 48 -45 51 0 3 -22 4 -49 1 -44 -4 -53 -1 -73 21 -25
26 -55 112 -82 232 -19 81 -22 377 -6 421 9 22 6 37 -20 88 -49 100 -76 215
-86 366 -11 175 22 367 81 473 14 25 69 87 122 139 200 192 237 234 256 286 9
27 17 66 17 86 0 49 28 76 80 76 32 0 47 -6 68 -28 45 -48 72 -86 78 -109 4
-13 9 -23 13 -23 5 0 14 -19 21 -42 8 -24 17 -48 22 -54 5 -6 9 -60 10 -120 2
-99 0 -114 -24 -164 -14 -30 -47 -84 -72 -119 -32 -46 -46 -75 -46 -98 0 -18
2 -33 5 -33 11 0 55 24 55 30 0 9 149 83 223 110 55 21 58 24 57 53 -5 82 0
102 33 139 72 81 211 116 264 66 27 -25 31 -79 8 -98 -9 -7 -15 -23 -13 -34 3
-20 11 -21 138 -28 74 -4 156 -11 181 -15 l46 -9 6 77 c4 43 11 86 16 96 5 10
21 44 36 75 54 118 198 270 307 325 137 69 183 79 217 46 26 -26 30 -62 15
-145 -25 -140 -11 -273 46 -447 29 -90 116 -278 162 -352 102 -163 135 -240
153 -355 3 -22 16 -56 27 -75 70 -113 200 -374 250 -503 17 -43 36 -90 44
-105 8 -14 14 -30 14 -35 0 -12 189 -194 232 -223 l37 -25 205 17 c114 9 211
13 216 10 23 -14 7 -72 -24 -86 -11 -5 -41 -23 -66 -39 -25 -16 -57 -35 -72
-41 -16 -6 -28 -15 -28 -19 0 -12 414 -215 476 -234 24 -7 23 -9 76 144 30 90
33 104 36 262 2 93 -1 187 -6 210 -19 78 -44 163 -51 173 -4 6 -13 30 -20 55
-7 25 -17 50 -21 55 -4 6 -13 27 -20 48 -6 21 -35 84 -62 140 l-50 102 5 85
c3 47 15 141 27 210 43 257 96 583 110 685 5 39 17 106 25 150 8 44 22 125 30
180 9 55 22 145 31 200 8 55 19 114 24 130 5 17 12 49 15 73 9 57 42 92 86 92
19 0 41 -6 50 -13 37 -28 39 -49 23 -193 -56 -496 -19 -874 113 -1172 12 -29
23 -57 23 -61 0 -5 3 -11 8 -13 4 -1 22 -32 41 -68 19 -36 41 -75 50 -86 9
-12 23 -32 31 -44 54 -81 102 -128 272 -271 27 -23 31 -33 30 -74 0 -26 -4
-50 -10 -54 -12 -8 -130 -204 -143 -239 -6 -14 -17 -40 -24 -57 -49 -104 -83
-284 -70 -371 3 -24 17 -57 30 -73 14 -16 29 -39 33 -52 9 -22 15 -18 114 81
159 158 294 373 317 502 9 51 18 69 50 102 122 126 158 181 201 311 38 112 36
336 -4 416 -25 49 -20 98 14 152 17 26 30 52 30 57 0 4 3 10 8 12 4 2 22 26
40 53 18 28 38 58 45 68 17 26 94 128 115 152 9 11 37 44 60 75 135 171 476
514 648 649 128 102 131 104 239 181 98 69 91 65 185 125 47 30 92 60 100 65
94 66 155 76 197 34z m3928 -509 c306 -57 548 -196 735 -424 131 -158 221
-353 256 -552 19 -112 14 -389 -10 -479 -38 -146 -103 -298 -168 -394 -71
-104 -220 -256 -310 -318 -68 -47 -211 -120 -303 -157 -155 -61 -466 -87 -605
-51 -19 5 -69 17 -110 26 -41 9 -79 20 -85 24 -5 4 -28 13 -49 20 -107 35
-294 152 -391 247 -64 61 -160 178 -195 235 -37 62 -110 213 -110 228 0 9 -4
20 -10 26 -5 5 -21 64 -35 132 -23 106 -26 141 -23 269 3 105 10 176 25 243
21 91 48 170 58 170 6 0 105 -51 105 -54 0 -1 -11 -37 -25 -80 -55 -173 -52
-425 6 -612 27 -89 74 -201 90 -214 3 -3 16 -24 29 -47 13 -24 27 -43 31 -43
4 0 11 -9 14 -20 11 -35 185 -203 263 -254 333 -220 738 -248 1097 -76 101 48
175 101 278 200 110 104 164 184 259 382 13 28 50 169 59 223 10 66 10 267 -1
330 -11 66 -46 199 -59 222 -6 10 -21 43 -35 73 -45 99 -172 276 -228 318 -9
7 -23 18 -30 25 -81 77 -230 168 -323 197 -22 7 -45 17 -51 21 -6 5 -68 21
-139 35 -197 40 -377 28 -570 -38 -108 -37 -234 -105 -313 -168 l-57 -47 -40
26 c-70 46 -70 46 -18 88 27 21 50 41 53 44 3 4 46 31 95 61 139 84 270 133
430 163 99 18 313 18 410 0z m-1065 -370 l0 -75 74 0 73 0 6 -62 c3 -34 3 -66
1 -70 -3 -4 -39 -8 -80 -8 l-74 0 0 -75 0 -75 -65 0 -65 0 -1 60 c-1 33 -2 66
-3 73 -1 8 -26 13 -83 15 l-82 3 -6 33 c-4 18 -5 48 -3 67 l3 34 83 3 82 3 0
74 0 75 70 0 70 0 0 -75z m580 -712 c-1 -329 -2 -606 -1 -615 1 -19 43 -34
124 -44 62 -7 73 -17 63 -57 l-5 -23 -311 -1 -310 -2 0 38 0 38 67 12 c38 7
82 19 99 27 l31 15 6 122 c4 67 7 292 7 500 l0 377 -72 -49 c-65 -43 -179
-105 -183 -98 -1 1 -11 15 -23 31 -12 16 -22 32 -22 36 0 4 32 24 72 45 39 20
77 42 84 49 7 6 39 31 72 56 32 25 76 66 97 93 l38 47 85 0 84 0 -2 -597z
m863 576 c50 -13 126 -60 162 -101 59 -66 95 -211 66 -266 -5 -9 -16 -33 -25
-52 -21 -50 -89 -118 -141 -142 -34 -15 -32 -24 13 -47 54 -28 160 -145 188
-208 47 -107 28 -255 -48 -365 -52 -76 -162 -141 -268 -157 -85 -14 -229 2
-286 31 -47 23 -109 78 -142 125 -30 42 -55 164 -47 223 14 99 89 193 199 246
l54 27 -36 20 c-55 29 -129 110 -162 179 -37 76 -40 162 -10 252 24 72 42 101
86 143 105 99 244 131 397 92z m-9398 -1698 c-3 -6 -11 -11 -17 -11 -6 0 -6 6
2 15 14 17 26 13 15 -4z m295 -21 c0 -5 -2 -10 -4 -10 -3 0 -8 5 -11 10 -3 6
-1 10 4 10 6 0 11 -4 11 -10z m6235 -2224 c65 -28 66 -34 63 -445 l-3 -369
-28 -26 c-21 -20 -38 -26 -73 -26 l-44 0 0 -169 c0 -94 -3 -172 -8 -174 -9 -6
-45 22 -58 44 -5 9 -23 34 -40 55 -109 135 -166 208 -177 225 -12 19 -37 19
-1249 19 l-1237 0 -28 24 -28 24 -3 374 c-2 411 -2 410 58 440 33 17 122 18
1428 18 1181 0 1398 -2 1427 -14z"/>
<path d="M3036 11231 c-4 -5 3 -7 14 -4 23 6 26 13 6 13 -8 0 -17 -4 -20 -9z"/>
<path d="M10703 8848 c-13 -6 -23 -15 -23 -20 0 -4 -5 -8 -11 -8 -13 0 -269
-168 -379 -249 -166 -122 -295 -235 -495 -436 -198 -198 -250 -254 -301 -322
-12 -15 -50 -65 -85 -110 -81 -103 -166 -223 -176 -249 -4 -10 -21 -38 -36
-60 -27 -39 -27 -43 -14 -75 44 -103 53 -316 18 -439 -22 -77 -61 -181 -72
-190 -3 -3 -12 -16 -19 -29 -13 -25 -52 -71 -122 -143 -20 -21 -39 -53 -43
-70 -12 -61 -47 -151 -83 -212 -131 -228 -211 -317 -487 -539 -29 -23 -135
-97 -140 -97 -7 0 -88 -52 -95 -61 -3 -3 -20 -14 -37 -23 -43 -22 -42 -26 5
-14 77 20 107 31 154 59 27 16 58 29 69 29 11 0 55 12 97 26 86 29 263 43 385
30 61 -7 66 -9 57 -26 -13 -24 -13 -30 1 -30 5 0 7 6 3 13 -6 9 -5 9 8 -1 21
-16 69 -12 90 9 15 15 21 15 70 2 29 -8 80 -15 112 -16 l59 -2 43 83 c23 46
54 100 69 121 l26 39 127 12 c96 10 177 10 332 2 207 -10 460 -2 510 17 14 5
49 15 78 21 29 7 70 21 92 31 21 10 46 19 55 19 8 0 15 7 15 16 0 8 5 12 10 9
9 -6 83 34 128 68 89 68 242 248 242 284 0 7 5 13 10 13 6 0 10 8 10 18 0 10
4 22 8 28 23 26 37 107 37 214 0 99 -3 122 -22 162 -13 26 -23 52 -23 56 0 15
-36 42 -45 35 -4 -5 -2 2 4 15 6 12 27 28 45 36 19 8 53 33 75 55 36 36 41 47
41 86 0 25 -6 53 -12 61 -40 50 -75 72 -144 94 -63 19 -95 22 -210 22 -74 -1
-139 -4 -143 -7 -5 -3 -47 -12 -93 -21 -146 -27 -308 -87 -308 -113 0 -9 27
-35 59 -58 66 -46 96 -82 138 -163 60 -117 131 -178 239 -206 50 -14 61 -13
102 0 57 20 97 64 112 123 l11 47 30 -45 c32 -49 59 -130 59 -179 0 -34 -23
-135 -42 -185 -37 -95 -144 -223 -256 -303 -52 -38 -181 -102 -203 -102 -8 0
-19 -4 -24 -9 -6 -5 -59 -19 -120 -31 -103 -20 -134 -21 -467 -18 -197 2 -358
6 -358 9 0 17 212 186 295 234 155 91 260 145 279 145 27 0 25 35 -4 105 -19
45 -60 238 -74 355 -26 201 -17 403 25 605 6 28 18 82 26 120 16 78 58 205
108 336 40 101 144 313 156 317 5 2 9 8 9 14 0 18 101 188 191 323 91 134 214
292 259 332 27 24 19 29 -17 11z"/>
<path d="M11645 8818 c-33 -11 -62 -23 -65 -26 -3 -4 -18 -14 -35 -22 -45 -22
-138 -118 -184 -190 -35 -53 -41 -71 -41 -115 0 -46 8 -84 28 -135 20 -53 45
-165 49 -223 3 -50 0 -83 -16 -131 -22 -68 -78 -173 -96 -180 -24 -9 -79 30
-178 128 -190 189 -206 202 -223 184 -14 -14 -13 -19 9 -54 14 -22 39 -55 56
-74 17 -19 31 -39 31 -43 0 -5 6 -14 13 -21 6 -7 21 -25 32 -40 11 -15 58 -76
105 -135 47 -59 103 -134 125 -166 50 -72 159 -185 179 -185 8 0 19 -6 23 -13
4 -6 22 -18 38 -26 17 -7 37 -17 46 -21 9 -5 36 -14 60 -20 57 -16 127 -57
133 -78 3 -9 7 -57 10 -107 4 -49 11 -126 16 -170 6 -44 17 -136 25 -205 52
-441 63 -513 83 -505 12 4 13 3 2 -10 -10 -12 -10 -15 4 -15 9 0 16 8 17 18 0
14 2 14 9 -3 8 -18 9 -18 9 -2 1 14 5 16 20 7 26 -13 52 -14 31 0 -11 7 -7 9
17 7 17 -1 29 -6 26 -10 -2 -4 8 -5 24 -1 37 9 41 14 12 15 l-24 1 25 7 c14 4
39 11 57 14 27 5 31 4 26 -10 -5 -13 -3 -14 15 -4 12 7 22 8 22 4 0 -4 6 -1
13 8 10 13 38 25 77 33 13 3 44 25 35 26 -6 0 -16 -5 -22 -11 -8 -8 -13 -7
-18 2 -5 7 -4 10 3 5 6 -3 14 -1 17 5 4 6 19 8 34 5 17 -5 22 -4 12 3 -11 7
-10 11 7 20 29 15 52 14 58 -4 4 -8 11 -15 18 -15 7 0 12 -17 13 -42 0 -24 -1
-37 -4 -30 -2 6 -9 12 -14 12 -4 0 -5 -7 -2 -17 4 -9 2 -14 -3 -11 -5 3 -15 0
-21 -7 -10 -11 -8 -15 10 -21 12 -4 30 -7 41 -5 12 2 16 -1 11 -9 -5 -8 -3
-11 6 -8 8 3 24 1 37 -3 15 -6 22 -5 22 4 0 8 4 7 10 -3 9 -13 10 -13 10 0 0
13 1 13 10 0 20 -30 9 -1 -25 69 -19 39 -35 75 -35 79 0 4 -7 20 -16 37 -8 16
-27 59 -41 95 -14 36 -34 84 -44 107 -11 23 -19 45 -19 48 0 4 -6 21 -14 38
-8 18 -28 70 -46 117 -17 47 -35 94 -40 105 -5 11 -23 56 -40 100 -17 44 -35
89 -40 100 -15 34 -99 249 -137 352 l-36 98 -6 245 c-4 144 -12 255 -18 270
-26 58 -62 190 -72 260 -8 66 -7 86 13 165 21 83 22 94 9 140 -29 100 -137
218 -196 214 -7 0 -39 -10 -72 -21z m575 -2508 c-8 -5 -22 -9 -30 -9 -10 0 -8
3 5 9 27 12 43 12 25 0z m175 -80 c3 -6 -1 -7 -9 -4 -18 7 -21 14 -7 14 6 0
13 -4 16 -10z"/>
<path d="M7958 8553 c-10 -43 -29 -154 -43 -248 -14 -93 -30 -188 -35 -210 -5
-22 -11 -60 -14 -85 -6 -48 -13 -92 -46 -295 -34 -204 -59 -361 -76 -470 -8
-55 -19 -116 -24 -135 -5 -19 -12 -67 -16 -106 -6 -71 -6 -72 44 -175 65 -135
104 -233 137 -344 15 -49 31 -100 36 -112 14 -36 21 -281 11 -363 -11 -82 -35
-178 -58 -227 -7 -17 -14 -37 -14 -45 0 -7 -6 -22 -13 -33 -14 -20 -39 -106
-33 -112 6 -6 73 62 86 87 23 44 100 139 135 165 47 36 124 39 293 10 l33 -6
-28 42 c-27 41 -28 47 -28 168 0 125 3 145 47 276 24 71 77 185 95 203 7 7 13
18 13 22 0 5 20 40 45 77 25 37 45 71 45 76 0 11 -47 56 -106 102 -21 17 -53
44 -70 62 -18 17 -35 29 -38 26 -3 -4 -6 -1 -6 5 0 7 -25 46 -55 87 -30 40
-55 78 -55 83 0 5 -6 15 -14 21 -18 15 -129 242 -146 296 -6 22 -14 47 -17 55
-22 57 -56 215 -70 325 -22 168 -21 448 0 671 20 201 19 184 9 184 -4 0 -15
-35 -24 -77z"/>
<path d="M4402 8244 c1 -36 -32 -154 -43 -154 -4 0 -10 -9 -14 -19 -5 -16 -65
-78 -259 -266 -126 -121 -165 -258 -153 -530 6 -133 21 -205 60 -303 25 -63
42 -75 51 -37 4 14 18 50 32 81 18 41 26 76 29 139 4 76 37 222 54 235 3 3 22
30 42 60 47 70 98 124 176 183 121 92 164 168 171 304 l4 93 -45 92 c-25 51
-59 106 -76 122 l-30 29 1 -29z"/>
<path d="M4386 7585 c-10 -8 -15 -18 -11 -24 3 -6 0 -9 -8 -6 -18 8 -111 -93
-155 -168 -46 -79 -79 -217 -52 -217 6 0 10 4 10 8 0 10 134 148 180 185 84
67 78 52 66 149 -10 82 -12 86 -30 73z"/>
<path d="M4475 6597 c-13 -35 -19 -77 -19 -145 -1 -106 22 -310 36 -318 4 -3
8 -25 8 -50 l0 -44 -42 0 c-24 0 -55 6 -70 14 -26 14 -27 13 -46 -28 -11 -23
-27 -48 -36 -55 -29 -24 -17 -52 49 -118 50 -50 65 -71 65 -93 0 -19 7 -33 20
-40 11 -6 20 -20 20 -31 0 -11 13 -32 29 -47 33 -31 51 -63 51 -90 0 -11 13
-34 29 -51 26 -28 35 -31 88 -31 32 0 98 7 147 15 102 16 173 11 181 -14 3 -9
20 -32 37 -51 65 -70 118 -154 118 -184 0 -35 -37 -150 -63 -194 -17 -29 -148
-212 -185 -257 -4 -5 -23 -32 -42 -60 -18 -27 -36 -52 -39 -55 -3 -3 -12 -14
-19 -25 -36 -58 -52 -81 -61 -91 -18 -22 -71 -127 -71 -143 0 -9 -18 -52 -40
-96 -49 -99 -50 -136 -5 -182 7 -6 15 -31 19 -54 10 -63 41 -149 83 -229 41
-79 120 -160 197 -203 100 -56 262 -82 357 -57 22 6 57 15 79 20 40 11 147 58
185 82 73 47 160 128 206 193 18 28 40 56 47 63 21 23 14 36 -30 57 -39 19
-129 100 -172 154 -10 13 -32 54 -48 90 -16 36 -34 74 -39 83 -5 10 -9 23 -9
29 0 6 -12 23 -27 38 -44 42 -72 82 -78 113 -4 15 -11 30 -16 33 -5 4 -9 30
-9 60 0 52 -3 57 -57 119 -88 99 -129 211 -140 383 -4 69 21 213 46 261 15 27
59 164 66 202 l7 35 -31 -35 c-17 -19 -38 -43 -46 -53 -25 -28 -51 -18 -47 18
2 16 7 34 11 40 16 20 51 145 56 201 4 42 3 53 -4 38 -5 -12 -33 -47 -63 -78
-39 -42 -61 -57 -83 -59 -26 -2 -30 2 -33 26 -2 15 6 66 17 112 17 68 21 117
22 249 0 180 -5 216 -30 216 -51 1 -182 83 -267 169 l-61 62 -5 -105 c-5 -86
-10 -114 -33 -159 -31 -64 -56 -90 -82 -85 -19 4 -20 16 -7 92 7 44 -13 203
-27 212 -5 3 -9 13 -9 22 -1 9 -16 49 -34 87 l-32 70 -19 -48z"/>
<path d="M12335 6350 c3 -5 13 -10 21 -10 8 0 12 5 9 10 -3 6 -13 10 -21 10
-8 0 -12 -4 -9 -10z"/>
<path d="M12387 6323 c-10 -9 -9 -33 1 -33 4 0 8 9 8 20 0 23 0 22 -9 13z"/>
<path d="M12266 6262 c-44 -22 -109 -44 -179 -59 -99 -20 -139 -23 -352 -23
l-240 -1 35 -30 c40 -35 150 -89 232 -116 l57 -18 6 -50 c4 -27 5 -394 3 -814
l-3 -764 -24 -16 c-13 -9 -38 -21 -55 -27 -26 -9 -32 -18 -40 -57 -13 -76 -8
-81 77 -72 93 11 142 11 254 1 l92 -8 6 36 c12 64 1 84 -65 114 l-60 26 0 368
0 368 113 0 c63 0 162 -3 221 -7 l106 -6 -2 -361 -3 -361 -30 -10 c-16 -5 -32
-13 -35 -16 -3 -3 -15 -9 -27 -13 -26 -8 -36 -36 -31 -92 l3 -39 45 5 c70 8
228 6 308 -4 l72 -9 0 60 c0 64 -9 76 -87 117 l-33 17 0 797 c0 917 -10 832
104 899 67 39 98 73 54 58 -13 -5 -86 -10 -163 -12 -137 -4 -214 7 -310 43
-18 7 -17 4 5 -22 14 -16 43 -49 65 -73 22 -23 45 -52 52 -64 18 -32 18 -712
1 -724 -16 -10 -347 -17 -394 -9 l-34 7 0 352 0 353 48 23 c70 33 121 70 177
126 50 50 112 132 104 139 -2 2 -35 -13 -73 -32z"/>
<path d="M5768 6213 c7 -3 16 -2 19 1 4 3 -2 6 -13 5 -11 0 -14 -3 -6 -6z"/>
<path d="M5750 6152 c0 -32 209 -162 300 -187 58 -16 77 -53 141 -265 17 -58
40 -138 50 -177 49 -185 59 -223 78 -290 21 -72 47 -162 75 -258 8 -27 29
-102 46 -165 18 -63 41 -146 52 -185 21 -76 48 -181 77 -304 10 -43 21 -84 25
-90 4 -6 27 -11 50 -11 l43 0 17 68 c9 37 23 99 31 137 8 39 23 104 34 145 11
41 36 140 55 220 20 80 41 161 46 180 6 19 17 64 26 100 27 114 82 335 114
455 12 44 27 105 34 135 22 91 58 203 76 232 22 37 52 59 135 99 39 19 72 36
75 39 7 8 61 42 90 57 33 17 23 17 -155 -2 -104 -12 -190 -14 -337 -9 -109 4
-198 5 -198 2 0 -7 145 -101 198 -128 42 -22 42 -22 42 -79 0 -31 -5 -72 -11
-91 -5 -19 -19 -80 -29 -135 -10 -55 -28 -138 -40 -185 -12 -47 -30 -123 -40
-170 -11 -47 -28 -121 -39 -165 -10 -44 -27 -114 -36 -155 -9 -41 -20 -82 -24
-90 -5 -9 -12 -36 -16 -60 l-7 -44 -14 40 c-7 21 -20 66 -28 99 -17 70 -56
207 -111 390 -95 318 -150 552 -141 591 4 16 31 40 76 69 39 25 72 45 75 45 5
0 75 45 93 60 25 22 10 27 -50 17 -41 -6 -158 -5 -333 2 -260 10 -326 17 -445
48 -30 8 -65 17 -77 20 -13 3 -23 1 -23 -5z"/>
<path d="M6378 6133 c12 -2 32 -2 45 0 12 2 2 4 -23 4 -25 0 -35 -2 -22 -4z"/>
<path d="M6543 6133 c9 -2 25 -2 35 0 9 3 1 5 -18 5 -19 0 -27 -2 -17 -5z"/>
<path d="M12245 6094 c-22 -23 -44 -39 -50 -36 -5 3 -4 -1 2 -10 13 -15 8 -28
-9 -28 -5 0 -7 4 -3 9 3 5 0 13 -6 17 -8 4 -9 3 -5 -4 4 -7 1 -12 -9 -12 -9 0
-33 -11 -53 -25 -20 -14 -32 -25 -26 -25 6 0 23 9 37 20 14 11 31 20 38 20 7
0 -3 -11 -22 -25 -20 -15 -44 -25 -59 -23 -17 2 -26 -2 -28 -14 -2 -10 1 -18
7 -18 6 0 8 8 5 18 -4 11 -3 13 3 5 5 -7 6 -31 4 -55 l-5 -43 -6 35 c-3 19 -6
-98 -8 -262 l-2 -296 76 -7 c73 -7 212 -1 263 12 l23 6 -5 291 c-3 191 -8 301
-16 320 -6 16 -10 35 -7 43 3 7 0 13 -7 13 -7 0 -23 10 -37 21 -14 11 -20 18
-13 15 6 -4 15 -1 19 5 4 7 3 9 -3 6 -12 -8 -53 20 -53 36 0 7 7 3 15 -7 8
-11 15 -16 15 -12 0 4 -8 18 -18 30 l-17 23 -40 -43z m45 23 c0 -10 -39 -47
-49 -47 -7 0 1 11 16 25 28 25 33 28 33 22z"/>
<path d="M6661 5999 c-13 -10 -18 -19 -11 -19 7 0 19 8 26 18 7 9 14 12 14 6
0 -19 -29 -37 -51 -31 -17 5 -18 3 -7 -10 12 -15 11 -15 -10 -4 -12 6 -22 8
-21 4 3 -19 -2 -33 -12 -33 -5 0 -7 6 -3 13 4 6 -3 3 -16 -8 -13 -11 -20 -14
-15 -6 10 17 -4 10 -51 -25 -31 -22 -31 -25 -23 -70 5 -26 14 -64 20 -83 6
-20 17 -63 24 -96 7 -33 16 -69 19 -80 12 -43 45 -163 60 -220 9 -33 21 -69
26 -80 5 -11 23 -73 40 -139 16 -65 36 -136 43 -158 l14 -40 11 54 c7 29 21
94 32 143 12 50 29 128 39 175 32 144 53 234 61 255 11 28 30 136 30 167 0 15
4 28 8 30 17 6 21 77 6 93 -9 8 -12 15 -8 15 3 0 1 7 -6 15 -7 8 -9 15 -5 15
4 0 14 -8 21 -17 7 -10 14 -13 14 -6 0 17 -56 54 -73 47 -9 -3 -16 2 -19 14
-3 10 -16 22 -29 25 l-24 6 25 -19 c14 -11 21 -20 16 -20 -8 0 -55 35 -87 65
-25 24 -52 25 -78 4z m-121 -100 c-14 -5 -31 -17 -37 -26 -9 -12 -13 -13 -13
-4 0 19 30 40 55 40 17 0 16 -2 -5 -10z"/>
<path d="M12670 5847 c0 -10 7 -17 15 -17 8 0 15 -5 15 -11 0 -6 -7 -9 -15 -5
-8 3 -15 1 -15 -4 0 -6 4 -10 9 -10 5 0 11 -7 14 -14 4 -10 1 -13 -9 -9 -12 4
-14 -43 -13 -348 1 -195 5 -340 9 -324 4 17 15 46 23 65 18 41 116 150 135
150 7 0 10 4 7 10 -3 5 0 7 8 4 8 -3 20 2 27 11 7 8 19 15 26 15 23 0 17 25
-32 127 -138 295 -204 410 -204 360z"/>
<path d="M8090 5793 c-22 -9 -84 -79 -109 -123 l-21 -37 62 -21 c63 -20 79
-18 115 15 7 6 22 15 33 18 11 3 20 10 20 15 0 5 9 12 20 15 11 3 26 12 32 18
7 7 32 25 56 41 23 16 42 32 42 36 0 20 -210 38 -250 23z"/>
<path d="M9473 5776 c-51 -8 -79 -18 -95 -33 -12 -12 -20 -25 -17 -28 3 -2 43
9 90 25 46 16 92 30 102 30 9 0 17 5 17 10 0 11 1 11 -97 -4z"/>
<path d="M9851 5759 c-57 -4 -116 -12 -130 -18 -14 -5 -53 -15 -86 -22 -33 -6
-64 -15 -70 -19 -5 -4 -26 -11 -45 -15 -19 -4 -54 -16 -77 -26 -23 -11 -44
-19 -47 -19 -16 0 -106 -45 -106 -52 0 -5 -4 -7 -9 -3 -5 3 -12 1 -15 -4 -8
-12 21 -34 33 -26 7 4 8 -1 4 -11 -4 -11 -3 -15 5 -10 8 4 10 -16 9 -70 -2
-74 -3 -76 -39 -110 -32 -29 -45 -34 -86 -34 -28 0 -57 7 -71 16 -15 11 -25
13 -30 6 -9 -15 -57 -25 -87 -18 -24 6 -111 85 -105 96 1 2 -2 6 -7 8 -14 4
-20 -31 -23 -118 l-2 -75 43 -3 c23 -2 49 -10 57 -18 8 -8 28 -14 44 -14 34 0
129 38 129 51 0 5 6 8 13 6 6 -1 11 3 10 9 -2 8 20 11 65 10 l67 -1 3 -281 2
-282 34 -4 33 -4 -23 63 c-43 113 -28 270 32 342 60 71 110 112 162 132 36 14
203 12 251 -2 27 -8 63 -33 104 -72 l62 -61 0 -86 0 -87 -55 -54 c-32 -32 -86
-70 -130 -93 l-75 -37 51 5 c88 8 158 57 253 174 25 30 51 52 62 52 13 0 19 7
19 21 0 55 144 218 206 233 41 10 213 22 208 15 -2 -4 7 -9 21 -11 17 -4 26 0
28 11 8 32 7 77 -3 127 l-11 52 -47 6 c-63 8 -95 26 -102 56 -9 38 18 57 96
65 38 3 85 10 104 14 30 7 32 9 15 16 -11 5 -22 12 -25 15 -9 13 -98 59 -164
85 -172 69 -336 91 -555 74z"/>
<path d="M8595 5575 c-5 -2 -35 -6 -65 -10 -75 -8 -84 -15 -69 -48 7 -15 15
-27 18 -28 3 0 56 -6 116 -13 l110 -13 26 26 c14 14 29 41 32 59 l7 32 -83 -1
c-45 0 -86 -2 -92 -4z"/>
<path d="M8905 5551 c-125 -31 -213 -146 -231 -302 l-6 -58 -44 -7 c-40 -6
-44 -9 -44 -34 0 -30 15 -40 60 -40 l28 0 4 -152 c2 -84 1 -180 -2 -212 -5
-59 -5 -59 -45 -70 -29 -9 -41 -17 -43 -34 l-3 -22 185 0 186 0 0 24 c0 21 -6
24 -47 29 -73 8 -74 11 -71 242 l3 200 25 1 c93 3 90 1 90 39 l0 35 -60 0 -60
0 0 106 c0 128 16 174 60 174 26 0 60 -26 60 -46 0 -5 12 -20 26 -33 32 -31
76 -32 107 -3 l23 22 24 -25 c54 -57 150 -10 150 73 0 33 -6 45 -31 66 -42 36
-88 35 -127 -3 -22 -20 -32 -24 -36 -15 -13 34 -118 60 -181 45z"/>
<path d="M10660 5545 c-25 -8 -91 -20 -147 -26 -57 -7 -103 -15 -103 -19 0
-10 80 -30 118 -30 46 0 57 -33 57 -171 0 -64 -3 -120 -7 -124 -3 -4 -19 2
-34 12 -22 14 -48 18 -124 18 -82 0 -102 -4 -144 -25 -87 -44 -152 -136 -163
-230 -12 -104 26 -210 98 -275 51 -46 94 -60 184 -60 66 0 90 5 139 28 32 15
60 27 62 27 2 0 4 -16 4 -35 0 -28 4 -35 19 -35 11 0 22 4 25 9 4 5 39 14 79
21 90 14 196 46 222 66 18 14 11 14 -81 8 l-101 -7 -6 74 c-4 41 -7 223 -6
405 0 182 -3 343 -6 357 -8 31 -20 32 -85 12z m-128 -419 c44 -35 50 -61 56
-233 l5 -161 -33 -17 c-36 -19 -111 -22 -152 -6 -163 62 -153 415 12 443 39 7
83 -3 112 -26z"/>
<path d="M10383 5088 c-52 -56 -69 -165 -39 -248 31 -83 97 -117 184 -94 21 6
22 11 22 108 0 119 -14 214 -34 234 -8 8 -36 17 -63 19 -41 4 -51 1 -70 -19z"/>
<path d="M8284 5532 c-12 -9 -34 -44 -49 -77 -14 -33 -33 -72 -41 -87 -24 -45
-19 -51 34 -44 58 9 139 34 169 53 27 18 46 72 37 107 -14 57 -104 86 -150 48z"/>
<path d="M13723 5359 c-17 -5 -34 -17 -38 -27 -6 -20 -80 -77 -110 -85 -11 -3
-40 -11 -64 -17 -50 -13 -46 -20 28 -46 37 -13 56 -26 62 -43 5 -13 8 -105 7
-204 l-3 -180 -40 -14 c-37 -13 -65 -36 -65 -55 0 -5 96 -7 213 -6 204 3 212
4 212 23 0 21 -20 30 -87 40 -48 7 -49 11 -51 216 -2 120 2 173 12 197 16 37
28 39 73 12 60 -36 110 -26 138 29 18 36 18 38 0 79 -20 45 -46 57 -117 53
-24 -1 -73 -44 -92 -80 -21 -38 -31 -22 -31 49 0 39 -3 70 -7 69 -5 0 -22 -5
-40 -10z"/>
<path d="M14307 5331 c-41 -37 -172 -91 -222 -91 -16 0 -15 -3 10 -18 17 -10
43 -22 59 -26 56 -14 58 -21 64 -225 5 -209 2 -225 -52 -235 -38 -7 -59 -27
-51 -47 4 -11 41 -14 183 -14 176 1 177 1 180 23 3 18 -4 26 -36 40 -51 21
-52 27 -52 247 l0 173 33 24 c50 37 101 58 145 58 89 0 112 -63 112 -316 l0
-172 -27 -10 c-16 -6 -40 -14 -55 -18 -20 -4 -28 -12 -28 -28 0 -21 2 -21 180
-20 100 1 183 4 186 7 3 3 3 15 -1 26 -4 15 -18 23 -45 27 l-38 6 -4 227 c-4
256 -8 271 -88 326 -77 54 -220 45 -315 -20 l-50 -34 -3 64 c-3 57 -5 65 -23
65 -11 0 -38 -17 -62 -39z"/>
<path d="M12988 5329 c-71 -10 -135 -44 -188 -98 -65 -67 -84 -119 -85 -231 0
-82 3 -102 26 -150 31 -64 85 -117 160 -157 50 -26 62 -28 169 -28 106 0 119
2 167 27 121 64 184 170 185 310 0 115 -51 212 -146 277 -67 46 -179 66 -288
50z m170 -81 c13 -13 34 -41 45 -63 20 -36 22 -56 22 -186 0 -133 -2 -149 -23
-191 -34 -66 -72 -91 -138 -90 -67 0 -105 27 -135 96 -19 45 -22 69 -23 191 0
128 2 145 24 188 35 70 70 89 154 82 33 -3 57 -12 74 -27z"/>
<path d="M13063 5228 c2 -7 15 -46 28 -85 22 -67 26 -73 52 -73 33 0 43 20 29
58 -6 15 -13 38 -16 52 -5 26 -51 60 -81 60 -10 0 -15 -6 -12 -12z"/>
<path d="M12964 5169 c-21 -41 -23 -263 -4 -327 16 -51 53 -84 89 -80 21 2 27
10 32 42 9 58 -38 288 -71 348 -6 10 -10 25 -10 33 0 25 -19 17 -36 -16z"/>
<path d="M13128 4993 c-21 -5 -22 -15 -7 -63 6 -19 14 -60 18 -90 l7 -55 16
37 c9 21 20 69 24 108 7 69 6 70 -17 69 -13 -1 -32 -3 -41 -6z"/>
<path d="M14922 5288 c2 -13 15 -28 29 -35 15 -7 31 -19 37 -25 12 -16 53 -97
81 -160 27 -61 62 -140 122 -275 12 -27 34 -76 50 -110 27 -58 28 -63 15 -102
-18 -49 -36 -78 -99 -159 -40 -51 -52 -60 -64 -51 -11 10 -17 9 -30 -4 -16
-15 -14 -19 27 -57 48 -44 53 -46 69 -26 9 10 8 16 -4 26 -9 7 -12 16 -8 19
16 11 103 118 103 126 0 5 6 16 14 24 19 23 50 84 86 171 38 90 58 135 76 174
8 16 14 33 14 38 0 4 9 27 19 51 11 23 33 80 51 127 17 47 35 94 40 105 5 11
16 36 24 56 12 32 20 38 55 44 38 6 41 9 41 37 l0 31 -57 -9 c-32 -5 -97 -7
-145 -6 -88 3 -88 3 -88 -22 0 -22 6 -26 55 -36 53 -11 55 -13 55 -43 -1 -18
-9 -50 -20 -72 -11 -22 -19 -43 -20 -47 -1 -20 -84 -218 -91 -218 -7 0 -109
203 -109 218 0 4 -16 38 -35 76 -36 70 -37 86 -5 86 36 0 50 12 50 41 l0 29
-171 0 -170 0 3 -22z"/>
<path d="M7860 5243 c-8 -4 -28 -21 -45 -38 -28 -30 -102 -75 -124 -75 -5 0
-22 -5 -38 -11 -33 -12 -21 -23 45 -40 23 -6 45 -15 47 -20 9 -14 7 -361 -2
-369 -4 -4 -25 -13 -45 -20 -26 -8 -38 -17 -38 -30 0 -18 11 -19 195 -19 187
-1 195 0 195 19 0 20 -7 23 -81 35 -53 8 -59 31 -59 209 0 149 1 154 24 179
l25 27 48 -24 c43 -22 50 -23 75 -10 77 40 58 142 -29 160 -42 8 -99 -20 -115
-57 -17 -38 -34 -31 -31 12 5 69 -7 87 -47 72z"/>
<path d="M8349 5231 c-39 -30 -91 -53 -144 -65 -64 -15 -74 -42 -18 -52 77
-14 73 -2 73 -225 l0 -199 -26 -10 c-14 -6 -39 -10 -55 -10 -24 0 -29 -4 -29
-25 l0 -25 185 0 c176 0 185 1 185 19 0 20 -8 24 -67 36 l-33 7 0 284 0 284
-24 0 c-13 0 -34 -8 -47 -19z"/>
<path d="M9186 5231 c-24 -26 -91 -57 -143 -66 -33 -5 -43 -11 -43 -26 0 -12
9 -20 25 -24 14 -3 36 -7 49 -10 23 -5 24 -10 31 -110 4 -58 4 -152 0 -209
l-7 -104 -30 -6 c-17 -3 -41 -6 -54 -6 -19 0 -24 -5 -24 -25 l0 -25 185 0
c179 0 185 1 185 20 0 22 -5 25 -63 35 l-37 6 6 284 7 285 -35 0 c-22 0 -41
-7 -52 -19z"/>
<path d="M7219 5206 c-81 -22 -140 -74 -185 -164 -24 -50 -26 -61 -21 -150 5
-107 21 -150 79 -211 101 -105 300 -109 430 -10 71 53 127 119 158 183 36 73
39 103 7 62 -23 -30 -111 -120 -143 -146 -74 -60 -171 -76 -251 -39 -52 24
-49 31 25 58 88 32 179 89 217 135 28 35 35 51 35 88 0 146 -174 242 -351 194z
m126 -46 c15 -6 33 -17 42 -25 20 -20 45 -104 38 -126 -6 -17 -99 -98 -181
-159 l-42 -30 -13 33 c-8 19 -14 66 -14 117 1 68 5 94 23 127 33 63 86 86 147
63z"/>
<path d="M7262 5114 c-12 -8 -22 -22 -22 -30 0 -8 -4 -14 -9 -14 -12 0 -23
-113 -15 -155 l6 -36 47 38 c109 88 120 104 105 161 -6 22 -50 52 -76 52 -8 0
-24 -7 -36 -16z"/>
<path d="M9569 5206 c-51 -14 -64 -22 -128 -87 -56 -56 -81 -122 -81 -212 0
-123 68 -240 160 -276 19 -8 39 -18 45 -23 18 -16 158 -9 213 11 99 37 210
137 252 229 12 26 26 55 31 64 25 48 -2 35 -41 -19 -41 -56 -96 -108 -158
-147 -66 -41 -152 -47 -216 -15 l-46 23 27 18 c16 10 34 18 41 18 33 0 152 69
200 115 51 51 52 52 52 111 0 51 -4 66 -27 96 -73 93 -196 129 -324 94z m134
-48 c33 -17 56 -47 67 -87 16 -59 13 -67 -52 -122 -35 -30 -65 -56 -68 -59 -3
-3 -26 -20 -51 -37 l-47 -33 -13 33 c-20 46 -17 193 4 233 37 70 106 101 160
72z"/>
<path d="M9619 5118 c-29 -24 -46 -63 -53 -119 -8 -60 0 -112 16 -107 16 6
147 113 152 125 9 21 -14 82 -37 98 -26 18 -58 19 -78 3z"/>
<path d="M14495 5179 c-22 -11 -46 -28 -52 -37 -14 -17 -19 -182 -5 -182 18
-1 169 -29 185 -35 15 -6 17 1 17 73 0 95 -8 144 -23 135 -6 -4 -8 0 -4 11 21
53 -46 73 -118 35z"/>
<path d="M14047 5176 c-3 -7 -2 -17 1 -22 4 -5 6 -8 3 -7 -6 4 -61 -27 -61
-35 0 -11 -101 -4 -116 9 -18 15 -37 7 -40 -18 -3 -19 4 -22 69 -33 39 -7 95
-18 122 -25 28 -7 74 -16 104 -20 l54 -7 -8 58 c-8 70 -12 77 -33 69 -9 -3
-13 -3 -10 1 4 3 -9 15 -30 25 -43 23 -48 23 -55 5z"/>
<path d="M8925 5082 c-27 -2 -53 -9 -57 -15 -8 -11 0 -337 8 -346 9 -10 95
-17 140 -12 l49 6 0 172 c0 94 -3 174 -5 177 -11 11 -87 21 -135 18z"/>
<path d="M7610 5010 c0 -59 -1 -60 -60 -124 -54 -57 -112 -95 -200 -130 -8 -3
10 -4 40 -2 72 5 154 54 219 129 9 11 28 33 43 50 15 18 28 35 28 40 0 4 7 7
15 7 22 0 20 49 -2 56 -10 3 -33 12 -50 20 l-33 14 0 -60z"/>
<path d="M14919 7801 c-72 -22 -113 -65 -128 -133 -6 -26 -9 -53 -7 -60 3 -7
7 -26 11 -42 9 -43 101 -125 188 -170 l77 -40 23 22 c37 34 66 103 73 169 14
128 -35 228 -123 252 -43 12 -77 13 -114 2z"/>
<path d="M14845 7105 c-68 -74 -93 -193 -64 -300 15 -56 67 -121 114 -142 40
-18 119 -23 167 -10 69 19 128 108 128 193 0 96 -63 175 -206 261 -85 51 -90
51 -139 -2z"/>
<path d="M10430 3833 c-24 -10 -48 -37 -59 -66 -7 -17 -11 -120 -11 -260 l0
-232 31 -38 30 -37 831 0 830 0 29 31 29 31 0 257 0 257 -31 30 -30 29 -817 2
c-449 1 -824 -1 -832 -4z m241 -53 c41 -8 60 -18 86 -47 30 -32 34 -42 31 -82
-3 -45 -4 -46 -39 -49 -35 -3 -37 -1 -50 40 -23 70 -89 88 -139 38 -18 -18
-20 -34 -20 -162 1 -171 8 -188 83 -188 50 0 74 19 79 65 2 22 10 32 30 39 38
13 58 -6 58 -58 0 -121 -204 -183 -298 -90 -37 38 -42 63 -42 233 0 141 3 170
18 192 36 54 49 61 143 78 4 1 30 -4 60 -9z m297 -114 l3 -107 82 3 82 3 3
106 c2 98 4 107 23 112 12 3 32 2 45 -3 l24 -10 0 -255 0 -255 -24 -6 c-58
-14 -61 -9 -64 119 l-3 117 -84 0 -85 0 0 -110 c0 -107 -1 -111 -24 -121 -14
-7 -36 -9 -50 -5 l-26 6 0 256 c0 254 0 255 22 263 12 4 34 5 48 1 25 -6 25
-8 28 -114z m574 112 c8 -7 23 -40 32 -73 10 -33 21 -69 26 -80 4 -11 17 -54
30 -95 12 -41 26 -86 30 -100 47 -142 48 -165 5 -176 -39 -10 -50 0 -65 55
l-14 51 -87 0 -87 0 -12 -32 c-27 -73 -30 -78 -50 -78 -12 0 -30 5 -41 11 -16
8 -19 17 -14 42 3 18 10 41 15 52 5 11 18 54 30 95 12 41 25 86 30 100 4 14
18 59 31 100 31 105 41 129 59 134 31 8 67 6 82 -6z m502 -1 c11 -8 17 -23 14
-38 -3 -22 -8 -24 -70 -27 l-68 -3 -2 -221 c-3 -195 -5 -222 -20 -232 -11 -7
-26 -7 -45 0 l-28 9 -3 223 -2 222 -65 0 c-62 0 -65 1 -71 27 -12 46 11 53
186 53 113 0 161 -4 174 -13z"/>
<path d="M11476 3601 c-10 -31 -24 -80 -31 -108 l-13 -53 64 0 c35 0 64 4 64
9 0 4 -9 37 -20 71 -11 34 -20 68 -20 75 0 7 -6 24 -13 38 -13 24 -13 24 -31
-32z"/>
<path d="M9503 3778 c-25 -12 -29 -33 -14 -70 5 -13 17 -48 26 -78 37 -128 58
-196 65 -215 4 -11 16 -48 25 -82 22 -77 40 -95 91 -91 43 3 52 16 78 103 16
57 81 269 102 333 21 66 18 91 -12 103 -55 20 -55 21 -120 -211 -9 -30 -25
-86 -37 -124 l-21 -69 -18 64 c-11 35 -26 89 -35 119 -8 30 -21 74 -29 98 -8
23 -14 50 -14 58 0 27 -30 74 -48 73 -9 0 -27 -5 -39 -11z"/>
<path d="M9963 3783 c-10 -3 -13 -66 -13 -262 l0 -258 25 -13 c19 -10 30 -11
50 -2 24 11 25 14 25 117 l0 105 33 0 c29 -1 35 -6 58 -53 73 -148 92 -177
115 -177 12 0 31 11 42 25 l20 25 -25 48 c-65 120 -76 146 -64 150 27 9 59 50
71 89 28 93 -15 185 -95 203 -42 10 -221 12 -242 3z m227 -103 c12 -12 20 -33
20 -55 0 -54 -28 -75 -100 -75 l-60 0 0 75 0 75 60 0 c47 0 64 -4 80 -20z"/>
</g>
</svg>
